<svg xmlns="http://www.w3.org/2000/svg" viewBox="0 0 24 24" role="img" aria-label="WhatsApp">
  <path fill="#ffffff" d="M12.04 2a9.84 9.84 0 0 0-8.35 15.06L2.35 22l5.08-1.31A9.83 9.83 0 1 0 12.04 2Zm0 2a7.83 7.83 0 1 1-3.98 14.58l-.36-.21-2.51.65.66-2.43-.23-.38A7.83 7.83 0 0 1 12.04 4Zm-3.1 3.85c.16 0 .33 0 .47.01.17.01.39-.06.61.47.23.55.78 1.9.85 2.04.07.14.12.3.02.48-.1.2-.15.31-.3.48-.15.17-.31.38-.45.51-.15.15-.31.31-.13.61.18.31.8 1.32 1.72 2.13 1.18 1.05 2.17 1.38 2.48 1.53.31.15.49.13.67-.08.18-.2.77-.9.98-1.21.2-.31.41-.26.69-.16.28.1 1.78.84 2.08.99.31.15.51.23.59.36.07.13.07.75-.18 1.47-.26.72-1.48 1.38-2.06 1.43-.53.05-1.19.07-1.92-.12-.44-.12-1.01-.33-1.74-.64-3.06-1.32-5.06-4.4-5.21-4.61-.15-.2-1.24-1.64-1.24-3.14 0-1.5.79-2.24 1.07-2.54.28-.31.61-.38.82-.38Z"/>
</svg>
